<?xml version="1.0" encoding="UTF-8" standalone="no"?>
<svg
   xmlns:dc="http://purl.org/dc/elements/1.1/"
   xmlns:cc="http://creativecommons.org/ns#"
   xmlns:rdf="http://www.w3.org/1999/02/22-rdf-syntax-ns#"
   xmlns:svg="http://www.w3.org/2000/svg"
   xmlns="http://www.w3.org/2000/svg"
   id="svg2319"
   version="1.1"
   viewBox="0 0 23.791084 19.135319"
   height="19.135319mm"
   width="23.791084mm">
  <defs
     id="defs2313" />
  <metadata
     id="metadata2316">
    <rdf:RDF>
      <cc:Work
         rdf:about="">
        <dc:format>image/svg+xml</dc:format>
        <dc:type
           rdf:resource="http://purl.org/dc/dcmitype/StillImage" />
        <dc:title></dc:title>
      </cc:Work>
    </rdf:RDF>
  </metadata>
  <g
     transform="translate(-47.068743,-19.069245)"
     id="layer1">
    <path
       id="path1388"
       d="m 55.294863,29.472193 c -0.76958,1.88731 -1.78594,7.005757 -1.78594,7.540625"
       style="fill:none;stroke:#000000;stroke-width:0.40000001;stroke-linecap:butt;stroke-linejoin:miter;stroke-miterlimit:4;stroke-dasharray:none;stroke-opacity:1" />
    <path
       id="path1396"
       d="m 57.213093,29.935214 c -0.0113,2.575677 -0.46302,5.1654 -0.46302,7.739063"
       style="fill:none;stroke:#000000;stroke-width:0.40000001;stroke-linecap:butt;stroke-linejoin:miter;stroke-miterlimit:4;stroke-dasharray:none;stroke-opacity:1" />
    <path
       id="path1408"
       d="m 61.843303,31.853443 c 0.0449,1.791716 -0.0696,3.602929 -0.26459,5.357813"
       style="fill:none;stroke:#000000;stroke-width:0.40000001;stroke-linecap:butt;stroke-linejoin:miter;stroke-miterlimit:4;stroke-dasharray:none;stroke-opacity:1" />
    <path
       id="path1412"
       d="m 64.621423,31.522714 c 0.79722,2.161773 1.2746,4.442005 2.05052,6.614583"
       style="fill:none;stroke:#000000;stroke-width:0.40000001;stroke-linecap:butt;stroke-linejoin:miter;stroke-miterlimit:4;stroke-dasharray:none;stroke-opacity:1" />
    <path
       id="path1365"
       d="m 63.328063,24.473525 c -3.28242,-1.220018 -7.38908,-1.338887 -10.30597,-2.797335 -0.40813,-0.204063 -1.7249,-0.02092 -2.0612,0.147229 -6.23615,3.118076 12.63504,14.896627 18.10907,9.422601 4.38746,-4.387465 -1.2235,-6.27045 -5.7419,-6.772495 z"
       style="fill:#730090;fill-opacity:1;stroke:#0f0013;stroke-width:0.40000001;stroke-linecap:butt;stroke-linejoin:miter;stroke-miterlimit:4;stroke-dasharray:none;stroke-opacity:1" />
    <path
       id="path1369"
       d="m 47.823783,19.450923 c -0.11827,-0.0028 -0.47688,-0.37694 -0.58101,-0.168679 -0.0743,0.14872 0.0241,0.267721 0.11246,0.356101 0.0125,0.01249 0.006,0.04373 0.0188,0.05623 0.0109,0.01087 0.0641,0.02662 0.075,0.03749 0.1155,0.115506 0.25706,0.257065 0.37484,0.374844 0.0146,0.01465 0.0564,0.01256 0.075,0.01874 0.005,0.0016 0.12137,0.149023 0.1312,0.16868 0.15115,0.302305 0.36818,0.552272 0.56226,0.843398 0.0438,0.06574 0.13857,0.108455 0.16868,0.16868 0.0406,0.08116 0.22883,0.39751 0.28113,0.449813 0.14469,0.144683 0.35613,0.299896 0.4873,0.43107 0.0443,0.04426 0.14499,0.07002 0.18742,0.112454 0.11857,0.118563 0.23826,0.256996 0.31862,0.337359 0.009,0.0094 0.0469,-0.0094 0.0562,0 0.10046,0.100467 0.28954,-0.291458 0.2249,-0.356101 -0.0455,-0.04549 -0.13901,-0.08279 -0.20616,-0.149938 -0.0808,-0.08078 -0.18494,-0.222426 -0.28113,-0.318617 -0.0996,-0.09964 -0.17306,-0.135571 -0.2624,-0.224907 -0.14801,-0.148011 -0.23628,-0.292512 -0.37484,-0.43107 -0.22619,-0.226192 -0.31804,-0.505464 -0.52478,-0.712204 -0.1,-0.09995 -0.1391,-0.232808 -0.22491,-0.318617 -0.23078,-0.230784 -0.38013,-0.495947 -0.61849,-0.674719 z"
       style="fill:#aa00d4;fill-opacity:1;stroke:#060007;stroke-width:0.30000001;stroke-linecap:round;stroke-linejoin:miter;stroke-miterlimit:4;stroke-dasharray:none;stroke-opacity:1" />
    <path
       id="path1367"
       d="m 49.590993,22.364758 c -0.47316,0.109993 -0.40488,0.604468 -0.40488,0.993789 0,0.206544 0.67419,1.962431 0.77295,2.061195 0.0507,0.05065 0.16352,0.940689 0.29445,0.809754 0.24894,-0.248937 0.0284,-1.316647 0.14724,-1.435474 0.004,-0.0039 1.50252,0.853121 1.69312,0.662526 0.12864,-0.128637 -0.88337,-1.269942 -0.88337,-1.398666 0,-0.01133 1.87523,0.07361 2.06119,0.07361 0.60122,0 -0.69933,-0.774838 -0.69933,-0.846562 0,-0.03681 0.0736,0 0.11042,0 0.17176,0 0.34354,0 0.5153,0 0.45086,0 1.12882,0.049 1.39867,-0.220843 0.0714,-0.07138 -0.0679,-0.06788 -0.0736,-0.07361 -0.16468,-0.164672 -1.32506,-0.474998 -1.32506,-0.478492 0,-0.123302 0.24477,-0.03681 0.36807,-0.03681 0.0984,0 1.65706,-0.03607 1.32506,-0.368072 -0.26059,-0.260587 -0.84147,-0.215739 -1.0674,-0.441684 -0.11133,-0.11132 -0.39257,-0.177878 -0.55212,-0.25765 -0.27986,-0.139927 -0.47631,-0.238159 -0.73614,-0.36807 -0.54836,-0.274186 -2.15676,0.500443 -2.35565,0.699334 -0.21416,0.214158 -0.58891,0.216298 -0.58891,0.62572 z"
       style="fill:#aa00d4;stroke:#080009;stroke-width:0.40000001;stroke-linecap:round;stroke-linejoin:round;stroke-miterlimit:4;stroke-dasharray:none;stroke-opacity:1" />
  </g>
</svg>
